HIERARCHY
ROOT Hips
{
	OFFSET 0.000000 0.000000 0.000000
	CHANNELS 6 Xposition Yposition Zposition Zrotation Yrotation Xrotation 
	JOINT LHipJoint
	{
		OFFSET 0.000000 0.000000 0.000000
		CHANNELS 3 Zrotation Yrotation Xrotation
		JOINT LeftUpLeg
		{
			OFFSET 1.363060 -1.794630 0.839290
			CHANNELS 3 Zrotation Yrotation Xrotation
			JOINT LeftLeg
			{
				OFFSET 2.448110 -6.726130 0.000000
				CHANNELS 3 Zrotation Yrotation Xrotation
				JOINT LeftFoot
				{
					OFFSET 2.562200 -7.039590 0.000000
					CHANNELS 3 Zrotation Yrotation Xrotation
					JOINT LeftToeBase
					{
						OFFSET 0.157640 -0.433110 2.322550
						CHANNELS 3 Zrotation Yrotation Xrotation
						End Site
						{
							OFFSET 0.000000 0.000000 0.000000
						}
					}
				}
			}
		}
	}
	JOINT RHipJoint
	{
		OFFSET 0.000000 0.000000 0.000000
		CHANNELS 3 Zrotation Yrotation Xrotation
		JOINT RightUpLeg
		{
			OFFSET -1.305520 -1.794630 0.839290
			CHANNELS 3 Zrotation Yrotation Xrotation
			JOINT RightLeg
			{
				OFFSET -2.542530 -6.985550 0.000000
				CHANNELS 3 Zrotation Yrotation Xrotation
				JOINT RightFoot
				{
					OFFSET -2.568260 -7.056230 0.000000
					CHANNELS 3 Zrotation Yrotation Xrotation
					JOINT RightToeBase
					{
						OFFSET -0.164730 -0.452590 2.363150
						CHANNELS 3 Zrotation Yrotation Xrotation
						End Site
						{
							OFFSET 0.000000 0.000000 0.000000
						}
					}
				}
			}
		}
	}
	JOINT LowerBack
	{
		OFFSET 0.000000 0.000000 0.000000
		CHANNELS 3 Zrotation Yrotation Xrotation
		JOINT Spine
		{
			OFFSET 0.028270 2.035590 -0.193380
			CHANNELS 3 Zrotation Yrotation Xrotation
			JOINT Spine1
			{
				OFFSET 0.056720 2.048850 -0.042750
				CHANNELS 3 Zrotation Yrotation Xrotation
				JOINT Neck
				{
					OFFSET 0.000000 0.000000 0.000000
					CHANNELS 3 Zrotation Yrotation Xrotation
					JOINT Neck1
					{
						OFFSET -0.054170 1.746240 0.172020
						CHANNELS 3 Zrotation Yrotation Xrotation
						JOINT Head
						{
							OFFSET 0.104070 1.761360 -0.123970
							CHANNELS 3 Zrotation Yrotation Xrotation
							End Site
							{
								OFFSET 0.000000 0.000000 0.000000
							}
						}
					}
				}
				JOINT LeftShoulder
				{
					OFFSET 0.000000 0.000000 0.000000
					CHANNELS 3 Zrotation Yrotation Xrotation
					JOINT LeftArm
					{
						OFFSET 3.362410 1.200890 -0.311210
						CHANNELS 3 Zrotation Yrotation Xrotation
						JOINT LeftForeArm
						{
							OFFSET 4.983000 -0.000000 -0.000000
							CHANNELS 3 Zrotation Yrotation Xrotation
							JOINT LeftHand
							{
								OFFSET 3.483560 -0.000000 -0.000000
								CHANNELS 3 Zrotation Yrotation Xrotation
								JOINT LeftFingerBase
								{
									OFFSET 0.000000 0.000000 0.000000
									CHANNELS 3 Zrotation Yrotation Xrotation
									JOINT LeftHandIndex1
									{
										OFFSET 0.715260 -0.000000 -0.000000
										CHANNELS 3 Zrotation Yrotation Xrotation
										End Site
										{
											OFFSET 0.000000 0.000000 0.000000
										}
									}
								}
								JOINT LThumb
								{
									OFFSET 0.000000 0.000000 0.000000
									CHANNELS 3 Zrotation Yrotation Xrotation
									End Site
									{
										OFFSET 0.000000 0.000000 0.000000
									}
								}
							}
						}
					}
				}
				JOINT RightShoulder
				{
					OFFSET 0.000000 0.000000 0.000000
					CHANNELS 3 Zrotation Yrotation Xrotation
					JOINT RightArm
					{
						OFFSET -3.136600 1.374050 -0.404650
						CHANNELS 3 Zrotation Yrotation Xrotation
						JOINT RightForeArm
						{
							OFFSET -5.241900 -0.000000 -0.000000
							CHANNELS 3 Zrotation Yrotation Xrotation
							JOINT RightHand
							{
								OFFSET -3.444170 -0.000000 -0.000000
								CHANNELS 3 Zrotation Yrotation Xrotation
								JOINT RightFingerBase
								{
									OFFSET 0.000000 0.000000 0.000000
									CHANNELS 3 Zrotation Yrotation Xrotation
									JOINT RightHandIndex1
									{
										OFFSET -0.622530 -0.000000 -0.000000
										CHANNELS 3 Zrotation Yrotation Xrotation
										End Site
										{
											OFFSET 0.000000 0.000000 0.000000
										}
									}
								}
								JOINT RThumb
								{
									OFFSET 0.000000 0.000000 0.000000
									CHANNELS 3 Zrotation Yrotation Xrotation
									End Site
									{
										OFFSET 0.000000 0.000000 0.000000
									}
								}
							}
						}
					}
				}
			}
		}
	}
}
MOTION
Frames: 12
Frame Time: 0.033333
1.590788 17.133735 -13.452975 0.267131 -23.234842 26.588025 -9.209422 4.064057 6.192898 -19.008743 -8.560015 -61.668828 -11.152681 5.478848 16.341553 2.062493 -0.936572 -19.848971 -1.654584 0.293656 -31.208298 10.676396 -1.349544 3.309317 3.576237 9.695430 -33.535698 13.679702 12.039462 -3.697642 -1.159453 3.625024 12.365793 0.406763 -0.266403 -37.425168 -7.989964 4.928172 -4.357016 1.881627 -1.394633 -3.809739 -5.867047 -2.202405 0.415521 6.124327 -6.093840 -9.235420 -4.757958 -0.469909 -0.768163 -0.086743 0.055641 0.039707 -7.255267 4.263796 -1.288726 -67.317161 26.304135 23.001210 0.231456 -22.305437 -2.134691 7.369107 3.753544 0.342376 -0.109928 0.047493 -0.013275 -0.059090 -0.018070 -0.066983 0.048333 0.035424 -0.006548 9.348181 4.728041 -12.096941 66.309188 1.298255 -14.128593 8.316407 45.177059 5.693453 -4.304124 6.677015 -0.196874 0.172942 -0.106648 -0.014279 0.139529 -0.005583 -0.103433 0.069229 0.024362 0.032794 
1.590366 17.137021 -12.722254 -2.096447 -18.841959 27.068576 -8.787195 3.535592 5.952399 -18.094479 -5.944630 -57.685434 -10.192777 -2.392357 18.482036 2.524723 -2.118820 -18.764200 -1.962660 0.262740 -33.208128 9.885377 -0.534833 2.644398 5.261044 9.696124 -35.045206 15.325381 7.253595 5.733468 -1.110660 3.694450 2.672043 0.519623 -0.267050 -37.098235 -3.732262 -2.001740 -7.026279 0.923114 -0.500840 -3.213655 -4.365918 -1.190698 0.407885 6.268884 -6.522733 -9.215373 -4.751995 -0.429048 -0.847131 -0.081072 0.044620 0.028958 -8.580653 4.843057 -0.092138 -66.869646 16.698846 19.424465 -0.626769 -23.915991 -2.402766 7.423016 3.006561 0.285108 -0.146311 -0.066714 -0.020037 -0.051987 -0.023983 -0.057226 0.043320 0.037900 -0.006753 12.462190 1.794396 -5.024687 64.931948 1.212276 -11.957885 4.599667 44.001790 3.442331 -4.344674 6.554714 -0.191336 0.145882 -0.056943 -0.033817 0.129443 -0.011370 -0.098709 0.074099 0.031036 0.030865 
1.555539 17.173837 -12.062472 -3.066197 -13.456156 26.398665 -8.681669 3.101936 6.225606 -15.452401 -6.453695 -53.639852 -8.091872 -0.183782 19.596156 2.711324 -0.727024 -16.835553 -1.875219 0.159524 -34.707800 10.631922 -1.141307 0.467639 5.867395 10.841617 -35.395391 13.748379 1.256568 16.484483 -0.987632 2.998767 -4.888884 0.543262 -0.239557 -38.416482 -2.089665 -4.356229 -8.173679 0.532533 -1.105431 -2.335010 -5.990307 -3.224415 0.976977 7.655769 -6.413724 -9.035787 -4.587030 -0.381598 -0.682552 -0.076163 0.040695 0.032466 -7.800279 4.309903 0.086801 -65.520978 9.981258 16.111767 -2.169134 -21.552328 -1.829334 6.817789 2.358078 0.228763 -0.139385 0.038544 -0.026956 -0.055951 -0.021963 -0.048110 0.026526 0.038079 -0.011540 17.566831 -0.784559 -2.083910 65.239623 2.460968 -9.243213 1.938747 39.022022 0.696682 -3.930190 6.671799 -0.173486 0.019677 -0.065326 -0.038266 0.105754 -0.011452 -0.088149 0.068588 0.036174 0.043186 
1.487501 17.250117 -11.454341 -3.446341 -11.777748 23.781479 -9.118414 2.698025 6.054013 -12.501690 -4.213038 -48.748387 -7.482361 3.758372 25.910840 2.432313 0.035055 -14.994086 -1.353993 0.093947 -35.002798 11.276043 -0.369862 -0.240243 6.388126 9.335597 -33.409552 12.517160 -1.379179 23.712564 -1.044925 2.511048 -6.958666 0.617821 -0.246374 -36.946930 -2.327780 -4.429170 -6.873074 1.049498 -1.832916 -2.969257 -6.466128 -3.136454 1.472219 8.562875 -5.857142 -9.589759 -4.533550 -0.368673 -0.749147 -0.071562 0.045280 0.031006 -6.742516 4.432343 0.785093 -64.566311 4.600312 15.549438 -2.926078 -17.678353 -0.653187 6.595613 1.842491 0.193229 -0.058916 0.038844 -0.026538 -0.056374 -0.014253 -0.051319 0.002953 0.043504 -0.007028 18.619964 -1.212398 1.126693 66.882543 3.809502 -5.984296 1.421413 35.224977 0.086273 -3.361644 6.863149 -0.161601 -0.003463 -0.097570 -0.033528 0.085625 -0.002127 -0.076401 0.063278 0.050653 0.045016 
1.395572 17.357579 -10.874718 -3.053776 -10.802598 22.329760 -9.203231 2.438331 5.341502 -11.129754 -4.039162 -44.588531 -4.472266 7.828100 34.380895 2.311372 1.585569 -14.085525 -1.049574 0.134916 -34.634948 12.164191 0.489321 -0.432871 6.154854 8.518576 -32.122090 10.081177 -2.445674 28.621279 -1.107503 1.155208 -7.281319 0.858211 -0.323401 -34.803963 -1.853095 -2.459232 -6.813812 -0.141259 -1.911693 -2.539739 -6.894774 -3.089752 2.382354 8.543523 -5.194212 -9.494270 -4.450812 -0.383741 -0.145336 -0.069469 0.064106 0.035656 -5.233092 3.999270 1.386379 -65.347084 -3.015204 15.326411 -2.503615 -11.907433 -0.695763 6.347719 1.209414 0.140324 -0.048263 0.118153 -0.025562 -0.062248 -0.009712 -0.041293 -0.012255 0.042917 -0.009444 19.558533 -4.267978 1.179621 69.052430 6.447991 -2.267030 1.411945 31.058612 -0.086853 -3.183020 7.683834 -0.197372 -0.031672 -0.114802 -0.023958 0.071218 0.016595 -0.062160 0.066536 0.049929 0.038275 
1.298294 17.470256 -10.314276 -2.909475 -11.260117 21.912871 -9.867404 1.605534 3.730559 -10.068850 -3.078787 -42.389763 0.168014 8.138260 42.938046 2.187500 2.769510 -15.435737 -0.941061 0.225293 -33.486717 13.294087 2.000888 0.186435 5.541845 7.808965 -31.388904 7.743151 -2.691306 31.051771 -0.799298 0.389903 -6.561676 1.153250 -0.394757 -32.486029 -1.726620 -2.836280 -6.951470 -0.244497 -1.089700 -3.799269 -6.679257 -2.025406 1.923689 8.495500 -4.423712 -8.531191 -4.327574 -0.382703 -0.056478 -0.067571 0.070918 0.023089 -5.673834 3.747712 3.039489 -64.987971 -8.294345 12.571620 -2.548984 -8.826454 -0.741284 6.109114 0.726617 0.093787 -0.043441 0.022515 -0.026932 -0.064456 -0.012063 -0.036427 -0.021867 0.045453 -0.007082 18.954937 -3.150314 0.538603 70.431107 6.357407 2.038505 0.628580 27.456327 -0.658285 -3.109678 8.300659 -0.222797 -0.059994 -0.019779 -0.024360 0.052287 0.027125 -0.045569 0.066894 0.057031 0.033200 
1.219261 17.565196 -9.771733 -0.035047 -11.454802 20.658451 -10.905015 1.330297 3.149282 -8.553915 -4.195926 -42.447763 2.055919 9.369177 49.821098 2.707355 3.950384 -18.023363 -1.257097 0.343892 -31.523752 12.955376 2.351224 1.025434 4.180902 7.605454 -30.066329 4.406540 -2.855844 32.247331 -0.880514 -0.350759 -6.443624 1.820793 -0.511259 -32.380739 -4.199689 -3.343237 -7.673622 -1.426928 -0.084240 -4.180472 -6.045785 -1.311748 1.573270 8.765156 -3.424069 -8.046648 -4.265773 -0.371920 0.057461 -0.076805 0.069194 0.024120 -5.618217 4.292138 3.699888 -63.835188 -11.826865 12.534540 -3.707080 -6.751068 -0.436784 5.430295 0.367196 0.094050 -0.051574 -0.008009 -0.038988 -0.076526 -0.029747 -0.024697 -0.035071 0.047482 -0.011035 20.216857 -2.420184 2.728699 71.083155 9.025821 5.637598 -0.816554 23.167185 -0.698134 -3.184200 8.898401 -0.226042 -0.111374 -0.059110 -0.020074 0.046466 0.046766 -0.038906 0.063815 0.064903 0.031720 
1.167090 17.637168 -9.243641 1.626085 -10.138462 19.039930 -10.764212 1.144691 2.980802 -8.275577 -4.455221 -43.078666 2.512164 9.068227 55.059790 3.040325 5.828422 -19.691819 -1.476514 0.417157 -30.176257 13.373958 1.693380 2.472333 3.307475 8.658035 -27.783069 0.902593 -3.898476 31.529539 -0.628516 -1.480867 -6.379652 2.457447 -0.573147 -32.990252 -4.767873 -3.518708 -7.707254 -2.611558 1.106904 -3.840910 -6.135084 0.507972 1.516674 8.576599 -2.560686 -7.588692 -4.277217 -0.361459 0.107908 -0.077741 0.060905 0.027181 -5.647886 4.347209 4.442660 -61.753221 -13.611312 11.916810 -4.761046 -6.424961 0.148322 4.656613 -0.083427 0.082415 -0.061966 -0.003722 -0.053108 -0.085740 -0.047048 -0.017451 -0.047675 0.040453 -0.017624 21.620847 -3.512265 3.439839 70.970375 12.813150 7.305850 -1.687093 19.649147 -1.192275 -3.231121 9.331284 -0.241238 -0.064296 -0.127089 -0.023725 0.039911 0.062176 -0.038043 0.058747 0.079145 0.029923 
1.135168 17.690417 -8.726761 1.756340 -9.210351 18.491868 -11.205018 0.837677 2.114732 -7.974673 -3.379750 -44.238729 4.631176 8.748855 56.002069 2.953715 7.966491 -18.145294 -1.136029 0.480137 -28.196241 14.402397 0.998382 3.597644 2.513381 8.681355 -25.961009 -0.106966 -4.400908 29.993280 -0.794271 -1.725893 -5.576742 2.625698 -0.545508 -33.639768 -4.623488 -3.022988 -6.911084 -2.775319 2.440041 -4.656136 -6.991473 0.682110 1.305118 8.815600 -1.474625 -6.431047 -4.082143 -0.362957 0.384540 -0.084786 0.052716 0.040943 -6.010441 5.175352 4.955113 -60.447178 -11.681640 12.894295 -4.850111 -6.027979 -0.165798 4.237555 0.066348 0.093559 -0.064353 -0.007355 -0.053986 -0.098689 -0.057683 -0.014955 -0.045833 0.031201 -0.020086 22.751822 -1.981740 5.790261 69.940644 17.329345 9.447142 -2.237456 17.680560 -1.215798 -3.177740 9.171266 -0.211029 -0.067323 -0.047258 -0.018076 0.042631 0.073092 -0.042271 0.059424 0.074985 0.035501 
1.119297 17.726911 -8.221854 2.618630 -9.515589 17.365808 -11.296961 1.048676 1.945527 -8.271491 -2.599458 -44.594653 3.022189 9.440987 51.232428 2.667210 10.368733 -16.586197 -0.644468 0.452522 -27.145178 13.670691 -0.700801 4.739807 2.710458 9.726147 -21.496435 -0.982338 -4.564597 24.416167 -0.825915 -0.682450 -5.146193 2.558219 -0.481383 -35.011807 -5.583762 -1.662606 -5.317450 -3.571693 3.024582 -4.423345 -7.108691 1.913172 1.120552 8.679874 -0.349771 -5.912969 -3.942948 -0.375235 0.672449 -0.081042 0.045091 0.051127 -6.055211 5.410174 4.662566 -60.426710 -8.621680 13.855920 -5.689724 -6.609863 0.080618 3.530938 -0.076932 0.098400 -0.142281 0.011764 -0.057418 -0.109092 -0.064895 -0.001804 -0.034421 0.023730 -0.022836 22.391347 -0.695402 5.851320 68.409567 22.168379 10.413034 -1.626146 17.114155 -1.112760 -2.727182 8.954973 -0.167329 -0.038282 -0.066833 -0.012870 0.050546 0.073782 -0.052028 0.061138 0.069945 0.044202 
1.123757 17.747066 -7.727214 1.697460 -9.663504 18.769288 -10.387865 0.290460 1.043089 -8.698525 -1.479111 -44.636891 0.522275 6.433894 44.057787 2.443333 11.570664 -13.501879 -0.213936 0.383921 -27.291368 13.620185 -0.924244 4.707537 4.002828 9.128764 -17.227843 -1.263357 -3.629279 16.837420 -0.717054 0.427080 -3.900617 2.110935 -0.397890 -34.816877 -4.710913 -1.207698 -6.664495 -3.512971 4.264619 -4.205655 -6.261766 2.005124 0.843221 8.021027 -0.166873 -5.583135 -3.589950 -0.360709 0.661836 -0.073068 0.041218 0.053629 -5.811606 5.601967 5.235788 -61.931872 -4.803148 14.010886 -5.217289 -8.562060 0.083480 3.296846 0.225719 0.116342 -0.172069 -0.060272 -0.055363 -0.107864 -0.066772 -0.000032 -0.013804 0.029472 -0.028619 19.729528 1.520665 6.320529 67.566524 25.759745 12.359415 -1.273215 20.653265 -0.479799 -2.404184 8.507443 -0.111908 0.004297 -0.091176 -0.012529 0.057072 0.074790 -0.054117 0.071277 0.068344 0.059156 
1.152708 17.752805 -7.233083 1.251518 -9.831371 18.926406 -10.467171 0.128574 0.713975 -7.674480 -1.457246 -44.173378 -0.506515 6.751985 33.670707 2.339282 11.899206 -10.141547 0.024624 0.285405 -28.318308 13.006914 -1.283824 5.195365 4.997097 7.795293 -12.940699 -0.791716 -2.591532 10.031689 -0.449226 1.140506 -1.136068 1.421413 -0.303248 -34.480029 -4.988390 -0.433251 -6.985319 -2.345126 4.014813 -3.881046 -6.249955 2.895869 0.969163 7.529790 -0.046002 -5.708171 -3.221150 -0.368484 0.745860 -0.056304 0.032918 0.061705 -4.043571 6.779850 4.961155 -63.763111 -0.967364 13.997185 -4.086479 -10.337809 -0.307018 3.267208 0.232068 0.110802 -0.102988 -0.014612 -0.057546 -0.104072 -0.057897 -0.001554 0.009359 0.036694 -0.035141 16.370996 2.709018 5.457512 67.367612 29.421770 15.321374 -1.164548 25.961494 -0.429946 -1.924747 8.294367 -0.063181 -0.009626 -0.110554 -0.013943 0.064642 0.071880 -0.057971 0.082703 0.067153 0.070073 
